#!OML:ASF E:/inclinewalkrobotboard/Project1/Captureday1/Session1/subject1.ASF
:FULLY-SPECIFIED
:DEGREES
63
root 0 0 0 12.481560291451013 8.88770021019168 -4.997524371556067
lowerback 13.804868600171119 3.8325143098820735 0.42715600442622326
upperback -4.5510329521127355 4.58437351774667 -2.2871026100502343
thorax -12.073923177855786 2.152719957971667 -3.3175797091719246
lowerneck -11.068368857085133 8.352352751691337 16.538801364744096
upperneck 36.45873552801333 8.423011437514798 -5.279786919626588
head 15.464670657538887 5.59112278329075 -3.685607619396912
rclavicle 7.406878874888E-15 1.1605121460702656E-14
rhumerus -2.062959164105681 12.115928198207296 -77.26613218588749
rradius 36.00592861849064
rwrist -9.815218375020079
rhand -25.990964554408386 -20.62991341617816
rfingers 7.125019999999953
rthumb 0.5712612628993181 -51.17256734077442
lclavicle 3.596045221851681E-15 6.047842942686301E-15
lhumerus -46.0523327287996 16.52375698416025 67.7816941520478
lradius 55.52234785342
lwrist -11.656634993437272
lhand -16.381287953592384 16.829838088699418
lfingers 7.125019999999881
lthumb 9.841521002736197 46.19887915207674
rfemur -1.9721387354466948 18.481417106778075 35.17937130774729
rtibia -6.821275558274156
rfoot 6.294329471815509 -27.642842748141245
rtoes -52.2061161124697
lfemur -23.275356179835175 -25.69846089152888 -20.9346649630089
ltibia 4.432830649114976
lfoot -34.40857042688847 1.36249047044938
ltoes -40.151989559499995
64
root 0 0 0 12.480259804493274 8.870722792099766 -4.996873823052128
lowerback 13.809265770579664 3.8300696811763615 0.425001795568954
upperback -4.550302781990355 4.580743145209425 -2.2875955298125357
thorax -12.075225467852121 2.1510443494233207 -3.316538872600971
lowerneck -11.067384269743545 8.356244087540247 16.542868674992985
upperneck 36.45993929192096 8.428309431195661 -5.282391968755176
head 15.464944291373811 5.593634156433003 -3.6866024592858624
rclavicle 7.40926328589429E-15 1.160854557258249E-14
rhumerus -2.0748545155110625 12.114525979210763 -77.26567545467225
rradius 36.00212336800676
rwrist -9.811528033503478
rhand -25.98965085166816 -20.63063941252986
rfingers 7.125019999999953
rthumb 0.5725428427592778 -51.17319960787101
lclavicle 3.606669384650035E-15 6.051327484525804E-15
lhumerus -46.05395605281059 16.53227516162606 67.77608863960893
lradius 55.51471197119018
lwrist -11.661318132303109
lhand -16.379817967580344 16.828800951562904
lfingers 7.125019999999881
lthumb 9.842941425107444 46.197696758814445
rfemur -1.979406222226964 18.48351179300809 35.17835657490244
rtibia -6.8190069124079535
rfoot 6.291342770565446 -27.642477955464578
rtoes -52.20577683427546
lfemur -23.28208686152508 -25.697113176678446 -20.93269826810004
ltibia 4.437664564103841
lfoot -34.411159124100664 1.3600779231902074
ltoes -40.15033864537037
65
root 0 0 0 12.472680501128364 8.707166145046378 -4.986536828268413
lowerback 13.837893414307835 3.810966964738017 0.40730242648676307
upperback -4.54531753787782 4.5523727966721195 -2.295264500304156
thorax -12.08415299741677 2.1375964140422976 -3.313611824954543
lowerneck -11.06831661078328 8.387824380046707 16.573007235639807
upperneck 36.46538436970758 8.470051721424865 -5.301813884088117
head 15.465254716857585 5.613390263818453 -3.693731503776232
rclavicle 7.36417023415172E-15 1.1586264281367288E-14
rhumerus -2.028917462846429 12.226583749173809 -77.32922516496447
rradius 36.15561006972142
rwrist -9.912216746408275
rhand -25.986469999246324 -20.611487473265697
rfingers 7.125019999999953
rthumb 0.5753859210300956 -51.15372748733882
lclavicle 3.5146556065158627E-15 6.026647529520357E-15
lhumerus -46.081438318539675 16.509101384265385 67.81020817706269
lradius 55.51516792598315
lwrist -11.62914744507389
lhand -16.362372022879583 16.842543810587774
lfingers 7.125019999999882
lthumb 9.859905707761744 46.210634209639075
rfemur -2.0237611641104447 18.50847135675233 35.183530636433645
rtibia -6.81254006719379
rfoot 6.243092577907387 -27.635199382630468
rtoes -52.1911405800046
lfemur -23.39332789781799 -25.66736567416931 -20.906658807130093
ltibia 4.541310607945391
lfoot -34.45398927146192 1.3518388274941522
ltoes -40.16105283077943
66
root 0 0 0 12.481767358035619 8.812283850596838 -4.987697341002144
lowerback 13.810225298301619 3.8248391566352016 0.42081743177075437
upperback -4.550196036680959 4.573253402155603 -2.2927644312836772
thorax -12.076026885913688 2.147094931091354 -3.320903124491346
lowerneck -11.076075880764634 8.362017404892294 16.544044528514274
upperneck 36.45540356822897 8.435973316924983 -5.287279697643068
head 15.462761028859415 5.596590473381621 -3.6877292582781864
rclavicle 7.39390310299006E-15 1.1617300333511985E-14
rhumerus -1.9873530621716986 12.16900394513052 -77.28964426530717
rradius 36.104040825309454
rwrist -9.872091840707032
rhand -25.99490939592944 -20.619422980420904
rfingers 7.125019999999953
rthumb 0.5674831659009882 -51.16232443717064
lclavicle 3.575695995030935E-15 6.08514784256205E-15
lhumerus -46.03406058864475 16.504651678831927 67.797330316961
lradius 55.5544243143594
lwrist -11.624049788502962
lhand -16.372055190642566 16.83696523144487
lfingers 7.125019999999882
lthumb 9.850338842384726 46.20600298805166
rfemur -1.9869443349761777 18.489805784276406 35.182672663818536
rtibia -6.817877958487557
rfoot 6.264132310496816 -27.63632314034426
rtoes -52.19796165567463
lfemur -23.349717820982864 -25.670676981171827 -20.92616428425043
ltibia 4.514523743995767
lfoot -34.40834076148603 1.3496996636442091
ltoes -40.179160453004755
67
root 0 0 0 12.4839660133978 8.890074707901485 -4.993734895164005
lowerback 13.79883422192416 3.834011677429947 0.42852028450252655
upperback -4.552101689010674 4.586704430921127 -2.288527998373664
thorax -12.072436982277743 2.1535852481038362 -3.3210060337662948
lowerneck -11.074039886800705 8.347976763111761 16.531738864753162
upperneck 36.45425666148427 8.417149862324672 -5.277922089300953
head 15.46310413998897 5.5879094123922 -3.684474227640545
rclavicle 7.426893609472293E-15 1.1609020120307716E-14
rhumerus -2.0112134179188788 12.1301177378752 -77.26579310795027
rradius 36.04143348850737
rwrist -9.844444765902795
rhand -25.996905585374016 -20.631913849931777
rfingers 7.125019999999953
rthumb 0.5654902002795286 -51.17499908586766
lclavicle 3.58956382648716E-15 6.0546642206938604E-15
lhumerus -46.04651241912525 16.504071949572158 67.79590676788078
lradius 55.54234515285259
lwrist -11.641534482364435
lhand -16.382163738252576 16.83311473415434
lfingers 7.125019999999881
lthumb 9.840628418791411 46.202401140197715
rfemur -1.9742528033648528 18.479350608547314 35.18256231816729
rtibia -6.814362277530986
rfoot 6.285650889912354 -27.637922123236216
rtoes -52.1965779504783
lfemur -23.29972811582367 -25.679574637731598 -20.939633115461085
ltibia 4.479315904451049
lfoot -34.38881316173233 1.3491717147585423
ltoes -40.16888258381529
